<mxfile host="app.diagrams.net" agent="Mozilla/5.0 (Windows NT 10.0; Win64; x64) AppleWebKit/537.36 (KHTML, like Gecko) Chrome/131.0.0.0 Safari/537.36" version="26.0.1">
  <diagram name="Page-1" id="_u7z7r7b2RSkXFTUZeUK">
    <mxGraphModel dx="3514" dy="2731" grid="0" gridSize="10" guides="1" tooltips="1" connect="1" arrows="1" fold="1" page="0" pageScale="1" pageWidth="827" pageHeight="1169" math="0" shadow="0">
      <root>
        <mxCell id="0" />
        <mxCell id="1" parent="0" />
        <mxCell id="UBGwMZhxnzpI9gc-XUI2-8" value="firstName" style="rounded=0;whiteSpace=wrap;html=1;" parent="1" vertex="1">
          <mxGeometry x="-1608" y="-364" width="120" height="60" as="geometry" />
        </mxCell>
        <mxCell id="cI64tNoJvY53CeDE8WNV-6" style="edgeStyle=orthogonalEdgeStyle;rounded=0;orthogonalLoop=1;jettySize=auto;html=1;" edge="1" parent="1" source="cI64tNoJvY53CeDE8WNV-1" target="cI64tNoJvY53CeDE8WNV-4">
          <mxGeometry relative="1" as="geometry" />
        </mxCell>
        <mxCell id="cI64tNoJvY53CeDE8WNV-10" style="edgeStyle=orthogonalEdgeStyle;rounded=0;orthogonalLoop=1;jettySize=auto;html=1;" edge="1" parent="1" source="cI64tNoJvY53CeDE8WNV-1" target="cI64tNoJvY53CeDE8WNV-7">
          <mxGeometry relative="1" as="geometry" />
        </mxCell>
        <mxCell id="cI64tNoJvY53CeDE8WNV-11" style="edgeStyle=orthogonalEdgeStyle;rounded=0;orthogonalLoop=1;jettySize=auto;html=1;" edge="1" parent="1" source="cI64tNoJvY53CeDE8WNV-1" target="cI64tNoJvY53CeDE8WNV-8">
          <mxGeometry relative="1" as="geometry" />
        </mxCell>
        <mxCell id="cI64tNoJvY53CeDE8WNV-1" value="instrument" style="rounded=0;whiteSpace=wrap;html=1;" vertex="1" parent="1">
          <mxGeometry x="-543" y="-1405" width="120" height="60" as="geometry" />
        </mxCell>
        <mxCell id="cI64tNoJvY53CeDE8WNV-4" value="drum" style="rounded=0;whiteSpace=wrap;html=1;" vertex="1" parent="1">
          <mxGeometry x="-543" y="-1182" width="120" height="60" as="geometry" />
        </mxCell>
        <mxCell id="cI64tNoJvY53CeDE8WNV-14" style="edgeStyle=orthogonalEdgeStyle;rounded=0;orthogonalLoop=1;jettySize=auto;html=1;entryX=0.5;entryY=0;entryDx=0;entryDy=0;" edge="1" parent="1" source="cI64tNoJvY53CeDE8WNV-7" target="cI64tNoJvY53CeDE8WNV-13">
          <mxGeometry relative="1" as="geometry" />
        </mxCell>
        <mxCell id="cI64tNoJvY53CeDE8WNV-7" value="piano" style="rounded=0;whiteSpace=wrap;html=1;" vertex="1" parent="1">
          <mxGeometry x="-886" y="-1182" width="120" height="60" as="geometry" />
        </mxCell>
        <mxCell id="cI64tNoJvY53CeDE8WNV-8" value="guitar" style="rounded=0;whiteSpace=wrap;html=1;" vertex="1" parent="1">
          <mxGeometry x="-228" y="-1182" width="120" height="60" as="geometry" />
        </mxCell>
        <mxCell id="cI64tNoJvY53CeDE8WNV-13" value="grand piano" style="rounded=0;whiteSpace=wrap;html=1;" vertex="1" parent="1">
          <mxGeometry x="-886" y="-905" width="120" height="60" as="geometry" />
        </mxCell>
        <mxCell id="cI64tNoJvY53CeDE8WNV-16" style="edgeStyle=orthogonalEdgeStyle;rounded=0;orthogonalLoop=1;jettySize=auto;html=1;entryX=0.5;entryY=0;entryDx=0;entryDy=0;" edge="1" parent="1" source="cI64tNoJvY53CeDE8WNV-15" target="cI64tNoJvY53CeDE8WNV-7">
          <mxGeometry relative="1" as="geometry" />
        </mxCell>
        <mxCell id="cI64tNoJvY53CeDE8WNV-15" value="tester" style="rounded=0;whiteSpace=wrap;html=1;" vertex="1" parent="1">
          <mxGeometry x="-1223" y="-1405" width="120" height="60" as="geometry" />
        </mxCell>
      </root>
    </mxGraphModel>
  </diagram>
</mxfile>
